<svg xmlns="http://www.w3.org/2000/svg" width="960" height="280" viewBox="0 0 960 280">
  <rect x="0" y="0" width="960" height="280" fill="#ffffff"/>
  <rect x="40" y="26" width="880" height="228" fill="#fbfdff" stroke="#d5dde5"/>
  <line x1="40" y1="140.0" x2="920" y2="140.0" stroke="#8aa1b5" stroke-width="1"/>
  <line x1="40" y1="76.16" x2="920" y2="76.16" stroke="#e5ebf1" stroke-width="1"/>
  <line x1="40" y1="203.84" x2="920" y2="203.84" stroke="#e5ebf1" stroke-width="1"/>
  <polyline fill="none" stroke="#005bbb" stroke-width="2.5" points="40.00,39.68 43.45,39.68 46.90,39.68 50.35,39.68 53.80,39.68 57.25,39.68 60.71,39.68 64.16,39.68 67.61,39.68 71.06,39.68 74.51,39.68 77.96,39.68 81.41,39.68 84.86,39.68 88.31,39.68 91.76,39.68 95.22,240.32 98.67,240.32 102.12,240.32 105.57,240.32 109.02,240.32 112.47,240.32 115.92,240.32 119.37,240.32 122.82,240.32 126.27,240.32 129.73,240.32 133.18,240.32 136.63,240.32 140.08,240.32 143.53,240.32 146.98,240.32 150.43,39.68 153.88,39.68 157.33,39.68 160.78,39.68 164.24,39.68 167.69,39.68 171.14,39.68 174.59,39.68 178.04,39.68 181.49,39.68 184.94,39.68 188.39,39.68 191.84,39.68 195.29,39.68 198.75,39.68 202.20,39.68 205.65,240.32 209.10,240.32 212.55,240.32 216.00,240.32 219.45,240.32 222.90,240.32 226.35,240.32 229.80,240.32 233.25,240.32 236.71,240.32 240.16,240.32 243.61,240.32 247.06,240.32 250.51,240.32 253.96,240.32 257.41,240.32 260.86,39.68 264.31,39.68 267.76,39.68 271.22,39.68 274.67,39.68 278.12,39.68 281.57,39.68 285.02,39.68 288.47,39.68 291.92,39.68 295.37,39.68 298.82,39.68 302.27,39.68 305.73,39.68 309.18,39.68 312.63,39.68 316.08,240.32 319.53,240.32 322.98,240.32 326.43,240.32 329.88,240.32 333.33,240.32 336.78,240.32 340.24,240.32 343.69,240.32 347.14,240.32 350.59,240.32 354.04,240.32 357.49,240.32 360.94,240.32 364.39,240.32 367.84,240.32 371.29,39.68 374.75,39.68 378.20,39.68 381.65,39.68 385.10,39.68 388.55,39.68 392.00,39.68 395.45,39.68 398.90,39.68 402.35,39.68 405.80,39.68 409.25,39.68 412.71,39.68 416.16,39.68 419.61,39.68 423.06,39.68 426.51,240.32 429.96,240.32 433.41,240.32 436.86,240.32 440.31,240.32 443.76,240.32 447.22,240.32 450.67,240.32 454.12,240.32 457.57,240.32 461.02,240.32 464.47,240.32 467.92,240.32 471.37,240.32 474.82,240.32 478.27,240.32 481.73,39.68 485.18,39.68 488.63,39.68 492.08,39.68 495.53,39.68 498.98,39.68 502.43,39.68 505.88,39.68 509.33,39.68 512.78,39.68 516.24,39.68 519.69,39.68 523.14,39.68 526.59,39.68 530.04,39.68 533.49,39.68 536.94,240.32 540.39,240.32 543.84,240.32 547.29,240.32 550.75,240.32 554.20,240.32 557.65,240.32 561.10,240.32 564.55,240.32 568.00,240.32 571.45,240.32 574.90,240.32 578.35,240.32 581.80,240.32 585.25,240.32 588.71,240.32 592.16,39.68 595.61,39.68 599.06,39.68 602.51,39.68 605.96,39.68 609.41,39.68 612.86,39.68 616.31,39.68 619.76,39.68 623.22,39.68 626.67,39.68 630.12,39.68 633.57,39.68 637.02,39.68 640.47,39.68 643.92,39.68 647.37,240.32 650.82,240.32 654.27,240.32 657.73,240.32 661.18,240.32 664.63,240.32 668.08,240.32 671.53,240.32 674.98,240.32 678.43,240.32 681.88,240.32 685.33,240.32 688.78,240.32 692.24,240.32 695.69,240.32 699.14,240.32 702.59,39.68 706.04,39.68 709.49,39.68 712.94,39.68 716.39,39.68 719.84,39.68 723.29,39.68 726.75,39.68 730.20,39.68 733.65,39.68 737.10,39.68 740.55,39.68 744.00,39.68 747.45,39.68 750.90,39.68 754.35,39.68 757.80,240.32 761.25,240.32 764.71,240.32 768.16,240.32 771.61,240.32 775.06,240.32 778.51,240.32 781.96,240.32 785.41,240.32 788.86,240.32 792.31,240.32 795.76,240.32 799.22,240.32 802.67,240.32 806.12,240.32 809.57,240.32 813.02,39.68 816.47,39.68 819.92,39.68 823.37,39.68 826.82,39.68 830.27,39.68 833.73,39.68 837.18,39.68 840.63,39.68 844.08,39.68 847.53,39.68 850.98,39.68 854.43,39.68 857.88,39.68 861.33,39.68 864.78,39.68 868.24,240.32 871.69,240.32 875.14,240.32 878.59,240.32 882.04,240.32 885.49,240.32 888.94,240.32 892.39,240.32 895.84,240.32 899.29,240.32 902.75,240.32 906.20,240.32 909.65,240.32 913.10,240.32 916.55,240.32 920.00,240.32"/>
  <text x="40" y="18" font-family="Segoe UI, Arial, sans-serif" font-size="16" fill="#102a43">Tiny-NN - Class 3: square</text>
  <text x="40" y="272" font-family="Consolas, monospace" font-size="12" fill="#486581">square(32,512)</text>
</svg>
