<svg xmlns="http://www.w3.org/2000/svg" width="960" height="280" viewBox="0 0 960 280">
  <rect x="0" y="0" width="960" height="280" fill="#ffffff"/>
  <rect x="40" y="26" width="880" height="228" fill="#fbfdff" stroke="#d5dde5"/>
  <line x1="40" y1="140.0" x2="920" y2="140.0" stroke="#8aa1b5" stroke-width="1"/>
  <line x1="40" y1="76.16" x2="920" y2="76.16" stroke="#e5ebf1" stroke-width="1"/>
  <line x1="40" y1="203.84" x2="920" y2="203.84" stroke="#e5ebf1" stroke-width="1"/>
  <polyline fill="none" stroke="#005bbb" stroke-width="2.5" points="40.00,240.32 43.45,234.05 46.90,227.78 50.35,221.51 53.80,215.24 57.25,208.97 60.71,202.70 64.16,196.43 67.61,190.16 71.06,183.89 74.51,177.62 77.96,171.35 81.41,165.08 84.86,158.81 88.31,152.54 91.76,146.27 95.22,140.00 98.67,133.73 102.12,127.46 105.57,121.19 109.02,114.92 112.47,108.65 115.92,102.38 119.37,96.11 122.82,89.84 126.27,83.57 129.73,77.30 133.18,71.03 136.63,64.76 140.08,58.49 143.53,52.22 146.98,45.95 150.43,39.68 153.88,45.95 157.33,52.22 160.78,58.49 164.24,64.76 167.69,71.03 171.14,77.30 174.59,83.57 178.04,89.84 181.49,96.11 184.94,102.38 188.39,108.65 191.84,114.92 195.29,121.19 198.75,127.46 202.20,133.73 205.65,140.00 209.10,146.27 212.55,152.54 216.00,158.81 219.45,165.08 222.90,171.35 226.35,177.62 229.80,183.89 233.25,190.16 236.71,196.43 240.16,202.70 243.61,208.97 247.06,215.24 250.51,221.51 253.96,227.78 257.41,234.05 260.86,106.69 264.31,123.35 267.76,140.00 271.22,156.65 274.67,173.31 278.12,190.16 281.57,206.81 285.02,223.47 288.47,240.32 291.92,223.47 295.37,206.81 298.82,190.16 302.27,173.31 305.73,156.65 309.18,140.00 312.63,123.35 316.08,106.69 319.53,89.84 322.98,73.19 326.43,56.53 329.88,39.68 333.33,56.53 336.78,73.19 340.24,89.84 343.69,106.69 347.14,123.35 350.59,140.00 354.04,156.65 357.49,173.31 360.94,190.16 364.39,206.81 367.84,223.47 371.29,240.32 374.75,223.47 378.20,206.81 381.65,190.16 385.10,173.31 388.55,156.65 392.00,140.00 395.45,123.35 398.90,106.69 402.35,89.84 405.80,73.19 409.25,56.53 412.71,39.68 416.16,56.53 419.61,73.19 423.06,89.84 426.51,106.69 429.96,123.35 433.41,140.00 436.86,156.65 440.31,173.31 443.76,190.16 447.22,206.81 450.67,223.47 454.12,240.32 457.57,223.47 461.02,206.81 464.47,190.16 467.92,173.31 471.37,156.65 474.82,140.00 478.27,123.35 481.73,240.32 485.18,202.70 488.63,165.08 492.08,127.46 495.53,89.84 498.98,52.22 502.43,64.76 505.88,102.38 509.33,140.00 512.78,177.62 516.24,215.24 519.69,227.78 523.14,190.16 526.59,152.54 530.04,114.92 533.49,77.30 536.94,39.68 540.39,77.30 543.84,114.92 547.29,152.54 550.75,190.16 554.20,227.78 557.65,215.24 561.10,177.62 564.55,140.00 568.00,102.38 571.45,64.76 574.90,52.22 578.35,89.84 581.80,127.46 585.25,165.08 588.71,202.70 592.16,240.32 595.61,202.70 599.06,165.08 602.51,127.46 605.96,89.84 609.41,52.22 612.86,64.76 616.31,102.38 619.76,140.00 623.22,177.62 626.67,215.24 630.12,227.78 633.57,190.16 637.02,152.54 640.47,114.92 643.92,77.30 647.37,39.68 650.82,77.30 654.27,114.92 657.73,152.54 661.18,190.16 664.63,227.78 668.08,215.24 671.53,177.62 674.98,140.00 678.43,102.38 681.88,64.76 685.33,52.22 688.78,89.84 692.24,127.46 695.69,165.08 699.14,202.70 702.59,240.32 706.04,173.31 709.49,106.69 712.94,39.68 716.39,106.69 719.84,173.31 723.29,240.32 726.75,173.31 730.20,106.69 733.65,39.68 737.10,106.69 740.55,173.31 744.00,240.32 747.45,173.31 750.90,106.69 754.35,39.68 757.80,106.69 761.25,173.31 764.71,240.32 768.16,173.31 771.61,106.69 775.06,39.68 778.51,106.69 781.96,173.31 785.41,240.32 788.86,173.31 792.31,106.69 795.76,39.68 799.22,106.69 802.67,173.31 806.12,240.32 809.57,173.31 813.02,106.69 816.47,39.68 819.92,106.69 823.37,173.31 826.82,240.32 830.27,173.31 833.73,106.69 837.18,39.68 840.63,106.69 844.08,173.31 847.53,240.32 850.98,173.31 854.43,106.69 857.88,39.68 861.33,106.69 864.78,173.31 868.24,240.32 871.69,173.31 875.14,106.69 878.59,39.68 882.04,106.69 885.49,173.31 888.94,240.32 892.39,173.31 895.84,106.69 899.29,39.68 902.75,106.69 906.20,173.31 909.65,240.32 913.10,173.31 916.55,106.69 920.00,39.68"/>
  <text x="40" y="18" font-family="Segoe UI, Arial, sans-serif" font-size="16" fill="#102a43">Simple Neural Network - Class 4: chirp-like sweep</text>
  <text x="40" y="272" font-family="Consolas, monospace" font-size="12" fill="#486581">segment chirp via tri(period=64/48/32/24)</text>
</svg>
