<svg xmlns="http://www.w3.org/2000/svg" width="960" height="280" viewBox="0 0 960 280">
  <rect x="0" y="0" width="960" height="280" fill="#ffffff"/>
  <rect x="40" y="26" width="880" height="228" fill="#fbfdff" stroke="#d5dde5"/>
  <line x1="40" y1="140.0" x2="920" y2="140.0" stroke="#8aa1b5" stroke-width="1"/>
  <line x1="40" y1="76.16" x2="920" y2="76.16" stroke="#e5ebf1" stroke-width="1"/>
  <line x1="40" y1="203.84" x2="920" y2="203.84" stroke="#e5ebf1" stroke-width="1"/>
  <polyline fill="none" stroke="#005bbb" stroke-width="2.5" points="40.00,240.32 43.45,229.87 46.90,219.42 50.35,208.97 53.80,198.52 57.25,188.07 60.71,177.62 64.16,167.17 67.61,156.72 71.06,146.27 74.51,135.82 77.96,125.37 81.41,114.92 84.86,104.47 88.31,94.02 91.76,83.57 95.22,73.12 98.67,79.39 102.12,85.66 105.57,91.93 109.02,98.20 112.47,104.47 115.92,110.74 119.37,117.01 122.82,123.28 126.27,129.55 129.73,135.82 133.18,142.09 136.63,148.36 140.08,154.63 143.53,160.90 146.98,167.17 150.43,173.44 153.88,167.17 157.33,160.90 160.78,154.63 164.24,148.36 167.69,142.09 171.14,135.82 174.59,129.55 178.04,123.28 181.49,117.01 184.94,110.74 188.39,104.47 191.84,98.20 195.29,91.93 198.75,85.66 202.20,79.39 205.65,73.12 209.10,83.57 212.55,94.02 216.00,104.47 219.45,114.92 222.90,125.37 226.35,135.82 229.80,146.27 233.25,156.72 236.71,167.17 240.16,177.62 243.61,188.07 247.06,198.52 250.51,208.97 253.96,219.42 257.41,229.87 260.86,240.32 264.31,229.87 267.76,219.42 271.22,208.97 274.67,198.52 278.12,188.07 281.57,177.62 285.02,167.17 288.47,156.72 291.92,146.27 295.37,135.82 298.82,125.37 302.27,114.92 305.73,104.47 309.18,94.02 312.63,83.57 316.08,73.12 319.53,79.39 322.98,85.66 326.43,91.93 329.88,98.20 333.33,104.47 336.78,110.74 340.24,117.01 343.69,123.28 347.14,129.55 350.59,135.82 354.04,142.09 357.49,148.36 360.94,154.63 364.39,160.90 367.84,167.17 371.29,173.44 374.75,167.17 378.20,160.90 381.65,154.63 385.10,148.36 388.55,142.09 392.00,135.82 395.45,129.55 398.90,123.28 402.35,117.01 405.80,110.74 409.25,104.47 412.71,98.20 416.16,91.93 419.61,85.66 423.06,79.39 426.51,73.12 429.96,83.57 433.41,94.02 436.86,104.47 440.31,114.92 443.76,125.37 447.22,135.82 450.67,146.27 454.12,156.72 457.57,167.17 461.02,177.62 464.47,188.07 467.92,198.52 471.37,208.97 474.82,219.42 478.27,229.87 481.73,240.32 485.18,229.87 488.63,219.42 492.08,208.97 495.53,198.52 498.98,188.07 502.43,177.62 505.88,167.17 509.33,156.72 512.78,146.27 516.24,135.82 519.69,125.37 523.14,114.92 526.59,104.47 530.04,94.02 533.49,83.57 536.94,73.12 540.39,79.39 543.84,85.66 547.29,91.93 550.75,98.20 554.20,104.47 557.65,110.74 561.10,117.01 564.55,123.28 568.00,129.55 571.45,135.82 574.90,142.09 578.35,148.36 581.80,154.63 585.25,160.90 588.71,167.17 592.16,173.44 595.61,167.17 599.06,160.90 602.51,154.63 605.96,148.36 609.41,142.09 612.86,135.82 616.31,129.55 619.76,123.28 623.22,117.01 626.67,110.74 630.12,104.47 633.57,98.20 637.02,91.93 640.47,85.66 643.92,79.39 647.37,73.12 650.82,83.57 654.27,94.02 657.73,104.47 661.18,114.92 664.63,125.37 668.08,135.82 671.53,146.27 674.98,156.72 678.43,167.17 681.88,177.62 685.33,188.07 688.78,198.52 692.24,208.97 695.69,219.42 699.14,229.87 702.59,240.32 706.04,229.87 709.49,219.42 712.94,208.97 716.39,198.52 719.84,188.07 723.29,177.62 726.75,167.17 730.20,156.72 733.65,146.27 737.10,135.82 740.55,125.37 744.00,114.92 747.45,104.47 750.90,94.02 754.35,83.57 757.80,73.12 761.25,79.39 764.71,85.66 768.16,91.93 771.61,98.20 775.06,104.47 778.51,110.74 781.96,117.01 785.41,123.28 788.86,129.55 792.31,135.82 795.76,142.09 799.22,148.36 802.67,154.63 806.12,160.90 809.57,167.17 813.02,173.44 816.47,167.17 819.92,160.90 823.37,154.63 826.82,148.36 830.27,142.09 833.73,135.82 837.18,129.55 840.63,123.28 844.08,117.01 847.53,110.74 850.98,104.47 854.43,98.20 857.88,91.93 861.33,85.66 864.78,79.39 868.24,73.12 871.69,83.57 875.14,94.02 878.59,104.47 882.04,114.92 885.49,125.37 888.94,135.82 892.39,146.27 895.84,156.72 899.29,167.17 902.75,177.62 906.20,188.07 909.65,198.52 913.10,208.97 916.55,219.42 920.00,229.87"/>
  <text x="40" y="18" font-family="Segoe UI, Arial, sans-serif" font-size="16" fill="#102a43">Machine Learning Classifier - Class 1: triangle mix</text>
  <text x="40" y="272" font-family="Consolas, monospace" font-size="12" fill="#486581">tri(64,256) + tri(32,512)</text>
</svg>
