<svg xmlns="http://www.w3.org/2000/svg" width="960" height="280" viewBox="0 0 960 280">
  <rect x="0" y="0" width="960" height="280" fill="#ffffff"/>
  <rect x="40" y="26" width="880" height="228" fill="#fbfdff" stroke="#d5dde5"/>
  <line x1="40" y1="140.0" x2="920" y2="140.0" stroke="#8aa1b5" stroke-width="1"/>
  <line x1="40" y1="76.16" x2="920" y2="76.16" stroke="#e5ebf1" stroke-width="1"/>
  <line x1="40" y1="203.84" x2="920" y2="203.84" stroke="#e5ebf1" stroke-width="1"/>
  <polyline fill="none" stroke="#005bbb" stroke-width="2.5" points="40.00,39.68 43.45,152.54 46.90,152.54 50.35,152.54 53.80,152.54 57.25,152.54 60.71,152.54 64.16,152.54 67.61,240.32 71.06,152.54 74.51,152.54 77.96,152.54 81.41,152.54 84.86,152.54 88.31,152.54 91.76,152.54 95.22,39.68 98.67,152.54 102.12,152.54 105.57,152.54 109.02,152.54 112.47,152.54 115.92,152.54 119.37,152.54 122.82,240.32 126.27,152.54 129.73,152.54 133.18,152.54 136.63,152.54 140.08,152.54 143.53,152.54 146.98,152.54 150.43,39.68 153.88,152.54 157.33,152.54 160.78,152.54 164.24,152.54 167.69,152.54 171.14,152.54 174.59,152.54 178.04,240.32 181.49,152.54 184.94,152.54 188.39,152.54 191.84,152.54 195.29,152.54 198.75,152.54 202.20,152.54 205.65,39.68 209.10,152.54 212.55,152.54 216.00,152.54 219.45,152.54 222.90,152.54 226.35,152.54 229.80,152.54 233.25,240.32 236.71,152.54 240.16,152.54 243.61,152.54 247.06,152.54 250.51,152.54 253.96,152.54 257.41,152.54 260.86,39.68 264.31,152.54 267.76,152.54 271.22,152.54 274.67,152.54 278.12,152.54 281.57,152.54 285.02,152.54 288.47,240.32 291.92,152.54 295.37,152.54 298.82,152.54 302.27,152.54 305.73,152.54 309.18,152.54 312.63,152.54 316.08,39.68 319.53,152.54 322.98,152.54 326.43,152.54 329.88,152.54 333.33,152.54 336.78,152.54 340.24,152.54 343.69,240.32 347.14,152.54 350.59,152.54 354.04,152.54 357.49,152.54 360.94,152.54 364.39,152.54 367.84,152.54 371.29,39.68 374.75,152.54 378.20,152.54 381.65,152.54 385.10,152.54 388.55,152.54 392.00,152.54 395.45,152.54 398.90,240.32 402.35,152.54 405.80,152.54 409.25,152.54 412.71,152.54 416.16,152.54 419.61,152.54 423.06,152.54 426.51,39.68 429.96,152.54 433.41,152.54 436.86,152.54 440.31,152.54 443.76,152.54 447.22,152.54 450.67,152.54 454.12,240.32 457.57,152.54 461.02,152.54 464.47,152.54 467.92,152.54 471.37,152.54 474.82,152.54 478.27,152.54 481.73,39.68 485.18,152.54 488.63,152.54 492.08,152.54 495.53,152.54 498.98,152.54 502.43,152.54 505.88,152.54 509.33,240.32 512.78,152.54 516.24,152.54 519.69,152.54 523.14,152.54 526.59,152.54 530.04,152.54 533.49,152.54 536.94,39.68 540.39,152.54 543.84,152.54 547.29,152.54 550.75,152.54 554.20,152.54 557.65,152.54 561.10,152.54 564.55,240.32 568.00,152.54 571.45,152.54 574.90,152.54 578.35,152.54 581.80,152.54 585.25,152.54 588.71,152.54 592.16,39.68 595.61,152.54 599.06,152.54 602.51,152.54 605.96,152.54 609.41,152.54 612.86,152.54 616.31,152.54 619.76,240.32 623.22,152.54 626.67,152.54 630.12,152.54 633.57,152.54 637.02,152.54 640.47,152.54 643.92,152.54 647.37,39.68 650.82,152.54 654.27,152.54 657.73,152.54 661.18,152.54 664.63,152.54 668.08,152.54 671.53,152.54 674.98,240.32 678.43,152.54 681.88,152.54 685.33,152.54 688.78,152.54 692.24,152.54 695.69,152.54 699.14,152.54 702.59,39.68 706.04,152.54 709.49,152.54 712.94,152.54 716.39,152.54 719.84,152.54 723.29,152.54 726.75,152.54 730.20,240.32 733.65,152.54 737.10,152.54 740.55,152.54 744.00,152.54 747.45,152.54 750.90,152.54 754.35,152.54 757.80,39.68 761.25,152.54 764.71,152.54 768.16,152.54 771.61,152.54 775.06,152.54 778.51,152.54 781.96,152.54 785.41,240.32 788.86,152.54 792.31,152.54 795.76,152.54 799.22,152.54 802.67,152.54 806.12,152.54 809.57,152.54 813.02,39.68 816.47,152.54 819.92,152.54 823.37,152.54 826.82,152.54 830.27,152.54 833.73,152.54 837.18,152.54 840.63,240.32 844.08,152.54 847.53,152.54 850.98,152.54 854.43,152.54 857.88,152.54 861.33,152.54 864.78,152.54 868.24,39.68 871.69,152.54 875.14,152.54 878.59,152.54 882.04,152.54 885.49,152.54 888.94,152.54 892.39,152.54 895.84,240.32 899.29,152.54 902.75,152.54 906.20,152.54 909.65,152.54 913.10,152.54 916.55,152.54 920.00,152.54"/>
  <text x="40" y="18" font-family="Segoe UI, Arial, sans-serif" font-size="16" fill="#102a43">Track 2 - Class 5: impulse train</text>
  <text x="40" y="272" font-family="Consolas, monospace" font-size="12" fill="#486581">impulse_train(stride=16,amp=512)</text>
</svg>
