<svg xmlns="http://www.w3.org/2000/svg" width="960" height="280" viewBox="0 0 960 280">
  <rect x="0" y="0" width="960" height="280" fill="#ffffff"/>
  <rect x="40" y="26" width="880" height="228" fill="#fbfdff" stroke="#d5dde5"/>
  <line x1="40" y1="140.0" x2="920" y2="140.0" stroke="#8aa1b5" stroke-width="1"/>
  <line x1="40" y1="76.16" x2="920" y2="76.16" stroke="#e5ebf1" stroke-width="1"/>
  <line x1="40" y1="203.84" x2="920" y2="203.84" stroke="#e5ebf1" stroke-width="1"/>
  <polyline fill="none" stroke="#005bbb" stroke-width="2.5" points="40.00,240.32 43.45,230.60 46.90,220.88 50.35,211.16 53.80,201.45 57.25,191.73 60.71,182.01 64.16,172.29 67.61,162.57 71.06,152.85 74.51,143.13 77.96,133.42 81.41,123.70 84.86,113.98 88.31,104.26 91.76,94.54 95.22,84.82 98.67,75.11 102.12,65.39 105.57,55.67 109.02,45.95 112.47,46.26 115.92,146.90 119.37,147.21 122.82,147.52 126.27,147.84 129.73,148.15 133.18,148.46 136.63,148.78 140.08,149.09 143.53,149.41 146.98,149.72 150.43,150.03 153.88,150.35 157.33,150.66 160.78,150.97 164.24,151.29 167.69,151.60 171.14,151.91 174.59,152.23 178.04,152.54 181.49,142.82 184.94,133.10 188.39,223.70 191.84,213.99 195.29,204.27 198.75,194.55 202.20,184.83 205.65,175.11 209.10,165.39 212.55,155.68 216.00,145.96 219.45,136.24 222.90,126.52 226.35,116.80 229.80,107.08 233.25,97.36 236.71,87.65 240.16,77.93 243.61,68.21 247.06,58.49 250.51,58.80 253.96,59.12 257.41,59.43 260.86,160.06 264.31,160.38 267.76,160.69 271.22,161.00 274.67,161.32 278.12,161.63 281.57,161.94 285.02,162.26 288.47,162.57 291.92,162.89 295.37,163.20 298.82,163.51 302.27,163.83 305.73,164.14 309.18,164.45 312.63,164.77 316.08,165.08 319.53,155.36 322.98,145.64 326.43,135.92 329.88,126.21 333.33,116.49 336.78,207.09 340.24,197.37 343.69,187.65 347.14,177.93 350.59,168.22 354.04,158.50 357.49,148.78 360.94,139.06 364.39,129.34 367.84,119.62 371.29,109.90 374.75,100.19 378.20,90.47 381.65,80.75 385.10,71.03 388.55,71.34 392.00,71.66 395.45,71.97 398.90,72.28 402.35,72.60 405.80,72.91 409.25,173.54 412.71,173.86 416.16,174.17 419.61,174.49 423.06,174.80 426.51,175.11 429.96,175.43 433.41,175.74 436.86,176.05 440.31,176.37 443.76,176.68 447.22,176.99 450.67,177.31 454.12,177.62 457.57,167.90 461.02,158.18 464.47,148.46 467.92,138.75 471.37,129.03 474.82,119.31 478.27,109.59 481.73,200.19 485.18,190.47 488.63,180.75 492.08,171.04 495.53,161.32 498.98,151.60 502.43,141.88 505.88,132.16 509.33,122.44 512.78,112.73 516.24,103.01 519.69,93.29 523.14,83.57 526.59,83.88 530.04,84.20 533.49,84.51 536.94,84.82 540.39,85.14 543.84,85.45 547.29,85.76 550.75,86.08 554.20,86.39 557.65,187.03 561.10,187.34 564.55,187.65 568.00,187.97 571.45,188.28 574.90,188.59 578.35,188.91 581.80,189.22 585.25,189.53 588.71,189.85 592.16,190.16 595.61,180.44 599.06,170.72 602.51,161.00 605.96,151.29 609.41,141.57 612.86,131.85 616.31,122.13 619.76,112.41 623.22,102.69 626.67,92.97 630.12,183.58 633.57,173.86 637.02,164.14 640.47,154.42 643.92,144.70 647.37,134.98 650.82,125.27 654.27,115.55 657.73,105.83 661.18,96.11 664.63,96.42 668.08,96.74 671.53,97.05 674.98,97.36 678.43,97.68 681.88,97.99 685.33,98.30 688.78,98.62 692.24,98.93 695.69,99.25 699.14,99.56 702.59,200.19 706.04,200.51 709.49,200.82 712.94,201.13 716.39,201.45 719.84,201.76 723.29,202.07 726.75,202.39 730.20,202.70 733.65,192.98 737.10,183.26 740.55,173.54 744.00,163.83 747.45,154.11 750.90,144.39 754.35,134.67 757.80,124.95 761.25,115.23 764.71,105.52 768.16,95.80 771.61,86.08 775.06,76.36 778.51,166.96 781.96,157.24 785.41,147.52 788.86,137.81 792.31,128.09 795.76,118.37 799.22,108.65 802.67,108.96 806.12,109.28 809.57,109.59 813.02,109.90 816.47,110.22 819.92,110.53 823.37,110.84 826.82,111.16 830.27,111.47 833.73,111.78 837.18,112.10 840.63,112.41 844.08,112.73 847.53,113.04 850.98,213.67 854.43,213.99 857.88,214.30 861.33,214.61 864.78,214.93 868.24,215.24 871.69,205.52 875.14,195.80 878.59,186.08 882.04,176.37 885.49,166.65 888.94,156.93 892.39,147.21 895.84,137.49 899.29,127.77 902.75,118.06 906.20,108.34 909.65,98.62 913.10,88.90 916.55,79.18 920.00,69.46"/>
  <text x="40" y="18" font-family="Segoe UI, Arial, sans-serif" font-size="16" fill="#102a43">Class 2: triangle + saw mix</text>
  <text x="40" y="272" font-family="Consolas, monospace" font-size="12" fill="#486581">tri(40,320) + saw(64,320) @ 3x index</text>
</svg>
