<svg xmlns="http://www.w3.org/2000/svg" width="960" height="280" viewBox="0 0 960 280">
  <rect x="0" y="0" width="960" height="280" fill="#ffffff"/>
  <rect x="40" y="26" width="880" height="228" fill="#fbfdff" stroke="#d5dde5"/>
  <line x1="40" y1="140.0" x2="920" y2="140.0" stroke="#8aa1b5" stroke-width="1"/>
  <line x1="40" y1="76.16" x2="920" y2="76.16" stroke="#e5ebf1" stroke-width="1"/>
  <line x1="40" y1="203.84" x2="920" y2="203.84" stroke="#e5ebf1" stroke-width="1"/>
  <polyline fill="none" stroke="#005bbb" stroke-width="2.5" points="40.00,140.00 43.45,135.77 46.90,131.54 50.35,127.46 53.80,123.23 57.25,119.00 60.71,114.92 64.16,110.69 67.61,106.46 71.06,102.38 74.51,98.15 77.96,93.92 81.41,89.84 84.86,85.76 88.31,81.53 91.76,77.30 95.22,173.54 98.67,169.31 102.12,165.08 105.57,161.00 109.02,156.77 112.47,152.54 115.92,148.46 119.37,144.23 122.82,140.00 126.27,144.23 129.73,148.46 133.18,152.54 136.63,156.77 140.08,161.00 143.53,165.08 146.98,169.31 150.43,73.22 153.88,77.30 157.33,81.53 160.78,85.76 164.24,89.84 167.69,93.92 171.14,98.15 174.59,102.38 178.04,106.46 181.49,110.69 184.94,114.92 188.39,119.00 191.84,123.23 195.29,127.46 198.75,131.54 202.20,135.77 205.65,240.32 209.10,236.09 212.55,231.86 216.00,227.78 219.45,223.55 222.90,219.32 226.35,215.24 229.80,211.01 233.25,206.78 236.71,202.70 240.16,198.47 243.61,194.24 247.06,190.16 250.51,186.08 253.96,181.85 257.41,177.62 260.86,73.22 264.31,68.99 267.76,64.76 271.22,60.68 274.67,56.45 278.12,52.22 281.57,48.14 285.02,43.91 288.47,39.68 291.92,43.91 295.37,48.14 298.82,52.22 302.27,56.45 305.73,60.68 309.18,64.76 312.63,68.99 316.08,173.54 319.53,177.62 322.98,181.85 326.43,186.08 329.88,190.16 333.33,194.24 336.78,198.47 340.24,202.70 343.69,206.78 347.14,211.01 350.59,215.24 354.04,219.32 357.49,223.55 360.94,227.78 364.39,231.86 367.84,236.09 371.29,140.00 374.75,135.77 378.20,131.54 381.65,127.46 385.10,123.23 388.55,119.00 392.00,114.92 395.45,110.69 398.90,106.46 402.35,102.38 405.80,98.15 409.25,93.92 412.71,89.84 416.16,85.76 419.61,81.53 423.06,77.30 426.51,173.54 429.96,169.31 433.41,165.08 436.86,161.00 440.31,156.77 443.76,152.54 447.22,148.46 450.67,144.23 454.12,140.00 457.57,144.23 461.02,148.46 464.47,152.54 467.92,156.77 471.37,161.00 474.82,165.08 478.27,169.31 481.73,73.22 485.18,77.30 488.63,81.53 492.08,85.76 495.53,89.84 498.98,93.92 502.43,98.15 505.88,102.38 509.33,106.46 512.78,110.69 516.24,114.92 519.69,119.00 523.14,123.23 526.59,127.46 530.04,131.54 533.49,135.77 536.94,240.32 540.39,236.09 543.84,231.86 547.29,227.78 550.75,223.55 554.20,219.32 557.65,215.24 561.10,211.01 564.55,206.78 568.00,202.70 571.45,198.47 574.90,194.24 578.35,190.16 581.80,186.08 585.25,181.85 588.71,177.62 592.16,73.22 595.61,68.99 599.06,64.76 602.51,60.68 605.96,56.45 609.41,52.22 612.86,48.14 616.31,43.91 619.76,39.68 623.22,43.91 626.67,48.14 630.12,52.22 633.57,56.45 637.02,60.68 640.47,64.76 643.92,68.99 647.37,173.54 650.82,177.62 654.27,181.85 657.73,186.08 661.18,190.16 664.63,194.24 668.08,198.47 671.53,202.70 674.98,206.78 678.43,211.01 681.88,215.24 685.33,219.32 688.78,223.55 692.24,227.78 695.69,231.86 699.14,236.09 702.59,140.00 706.04,135.77 709.49,131.54 712.94,127.46 716.39,123.23 719.84,119.00 723.29,114.92 726.75,110.69 730.20,106.46 733.65,102.38 737.10,98.15 740.55,93.92 744.00,89.84 747.45,85.76 750.90,81.53 754.35,77.30 757.80,173.54 761.25,169.31 764.71,165.08 768.16,161.00 771.61,156.77 775.06,152.54 778.51,148.46 781.96,144.23 785.41,140.00 788.86,144.23 792.31,148.46 795.76,152.54 799.22,156.77 802.67,161.00 806.12,165.08 809.57,169.31 813.02,73.22 816.47,77.30 819.92,81.53 823.37,85.76 826.82,89.84 830.27,93.92 833.73,98.15 837.18,102.38 840.63,106.46 844.08,110.69 847.53,114.92 850.98,119.00 854.43,123.23 857.88,127.46 861.33,131.54 864.78,135.77 868.24,240.32 871.69,236.09 875.14,231.86 878.59,227.78 882.04,223.55 885.49,219.32 888.94,215.24 892.39,211.01 895.84,206.78 899.29,202.70 902.75,198.47 906.20,194.24 909.65,190.16 913.10,186.08 916.55,181.85 920.00,177.62"/>
  <text x="40" y="18" font-family="Segoe UI, Arial, sans-serif" font-size="16" fill="#102a43">Class 1: square + triangle</text>
  <text x="40" y="272" font-family="Consolas, monospace" font-size="12" fill="#486581">square(32,320) + tri(48,320)</text>
</svg>
