<svg xmlns="http://www.w3.org/2000/svg" width="960" height="280" viewBox="0 0 960 280">
  <rect x="0" y="0" width="960" height="280" fill="#ffffff"/>
  <rect x="40" y="26" width="880" height="228" fill="#fbfdff" stroke="#d5dde5"/>
  <line x1="40" y1="140.0" x2="920" y2="140.0" stroke="#8aa1b5" stroke-width="1"/>
  <line x1="40" y1="76.16" x2="920" y2="76.16" stroke="#e5ebf1" stroke-width="1"/>
  <line x1="40" y1="203.84" x2="920" y2="203.84" stroke="#e5ebf1" stroke-width="1"/>
  <polyline fill="none" stroke="#005bbb" stroke-width="2.5" points="40.00,240.32 43.45,231.31 46.90,222.43 50.35,213.42 53.80,204.55 57.25,195.67 60.71,186.66 64.16,177.79 67.61,168.78 71.06,167.03 74.51,165.15 77.96,163.40 81.41,161.52 84.86,159.63 88.31,157.89 91.76,156.00 95.22,154.25 98.67,145.24 102.12,136.37 105.57,127.36 109.02,118.48 112.47,109.61 115.92,100.60 119.37,91.72 122.82,82.71 126.27,80.96 129.73,79.08 133.18,77.33 136.63,75.45 140.08,73.57 143.53,71.82 146.98,69.94 150.43,68.19 153.88,69.94 157.33,71.82 160.78,73.57 164.24,75.45 167.69,77.33 171.14,79.08 174.59,80.96 178.04,82.71 181.49,91.72 184.94,100.60 188.39,109.61 191.84,118.48 195.29,127.36 198.75,136.37 202.20,145.24 205.65,154.25 209.10,156.00 212.55,157.89 216.00,159.63 219.45,161.52 222.90,163.40 226.35,165.15 229.80,167.03 233.25,168.78 236.71,177.79 240.16,186.66 243.61,195.67 247.06,204.55 250.51,213.42 253.96,222.43 257.41,231.31 260.86,240.32 264.31,231.31 267.76,222.43 271.22,213.42 274.67,204.55 278.12,195.67 281.57,186.66 285.02,177.79 288.47,168.78 291.92,167.03 295.37,165.15 298.82,163.40 302.27,161.52 305.73,159.63 309.18,157.89 312.63,156.00 316.08,154.25 319.53,145.24 322.98,136.37 326.43,127.36 329.88,118.48 333.33,109.61 336.78,100.60 340.24,91.72 343.69,82.71 347.14,80.96 350.59,79.08 354.04,77.33 357.49,75.45 360.94,73.57 364.39,71.82 367.84,69.94 371.29,68.19 374.75,69.94 378.20,71.82 381.65,73.57 385.10,75.45 388.55,77.33 392.00,79.08 395.45,80.96 398.90,82.71 402.35,91.72 405.80,100.60 409.25,109.61 412.71,118.48 416.16,127.36 419.61,136.37 423.06,145.24 426.51,154.25 429.96,156.00 433.41,157.89 436.86,159.63 440.31,161.52 443.76,163.40 447.22,165.15 450.67,167.03 454.12,168.78 457.57,177.79 461.02,186.66 464.47,195.67 467.92,204.55 471.37,213.42 474.82,222.43 478.27,231.31 481.73,240.32 485.18,231.31 488.63,222.43 492.08,213.42 495.53,204.55 498.98,195.67 502.43,186.66 505.88,177.79 509.33,168.78 512.78,167.03 516.24,165.15 519.69,163.40 523.14,161.52 526.59,159.63 530.04,157.89 533.49,156.00 536.94,154.25 540.39,145.24 543.84,136.37 547.29,127.36 550.75,118.48 554.20,109.61 557.65,100.60 561.10,91.72 564.55,82.71 568.00,80.96 571.45,79.08 574.90,77.33 578.35,75.45 581.80,73.57 585.25,71.82 588.71,69.94 592.16,68.19 595.61,69.94 599.06,71.82 602.51,73.57 605.96,75.45 609.41,77.33 612.86,79.08 616.31,80.96 619.76,82.71 623.22,91.72 626.67,100.60 630.12,109.61 633.57,118.48 637.02,127.36 640.47,136.37 643.92,145.24 647.37,154.25 650.82,156.00 654.27,157.89 657.73,159.63 661.18,161.52 664.63,163.40 668.08,165.15 671.53,167.03 674.98,168.78 678.43,177.79 681.88,186.66 685.33,195.67 688.78,204.55 692.24,213.42 695.69,222.43 699.14,231.31 702.59,240.32 706.04,231.31 709.49,222.43 712.94,213.42 716.39,204.55 719.84,195.67 723.29,186.66 726.75,177.79 730.20,168.78 733.65,167.03 737.10,165.15 740.55,163.40 744.00,161.52 747.45,159.63 750.90,157.89 754.35,156.00 757.80,154.25 761.25,145.24 764.71,136.37 768.16,127.36 771.61,118.48 775.06,109.61 778.51,100.60 781.96,91.72 785.41,82.71 788.86,80.96 792.31,79.08 795.76,77.33 799.22,75.45 802.67,73.57 806.12,71.82 809.57,69.94 813.02,68.19 816.47,69.94 819.92,71.82 823.37,73.57 826.82,75.45 830.27,77.33 833.73,79.08 837.18,80.96 840.63,82.71 844.08,91.72 847.53,100.60 850.98,109.61 854.43,118.48 857.88,127.36 861.33,136.37 864.78,145.24 868.24,154.25 871.69,156.00 875.14,157.89 878.59,159.63 882.04,161.52 885.49,163.40 888.94,165.15 892.39,167.03 895.84,168.78 899.29,177.79 902.75,186.66 906.20,195.67 909.65,204.55 913.10,213.42 916.55,222.43 920.00,231.31"/>
  <text x="40" y="18" font-family="Segoe UI, Arial, sans-serif" font-size="16" fill="#102a43">Class 0: triangle + harmonic</text>
  <text x="40" y="272" font-family="Consolas, monospace" font-size="12" fill="#486581">tri(64,640) + tri(16,106)</text>
</svg>
