<svg xmlns="http://www.w3.org/2000/svg" width="960" height="280" viewBox="0 0 960 280">
  <rect x="0" y="0" width="960" height="280" fill="#ffffff"/>
  <rect x="40" y="26" width="880" height="228" fill="#fbfdff" stroke="#d5dde5"/>
  <line x1="40" y1="140.0" x2="920" y2="140.0" stroke="#8aa1b5" stroke-width="1"/>
  <line x1="40" y1="76.16" x2="920" y2="76.16" stroke="#e5ebf1" stroke-width="1"/>
  <line x1="40" y1="203.84" x2="920" y2="203.84" stroke="#e5ebf1" stroke-width="1"/>
  <polyline fill="none" stroke="#005bbb" stroke-width="2.5" points="40.00,240.32 43.45,234.05 46.90,227.78 50.35,221.51 53.80,215.24 57.25,208.97 60.71,202.70 64.16,196.43 67.61,190.16 71.06,183.89 74.51,177.62 77.96,171.35 81.41,165.08 84.86,158.81 88.31,152.54 91.76,146.27 95.22,140.00 98.67,133.73 102.12,127.46 105.57,121.19 109.02,114.92 112.47,108.65 115.92,102.38 119.37,96.11 122.82,89.84 126.27,83.57 129.73,77.30 133.18,71.03 136.63,64.76 140.08,58.49 143.53,52.22 146.98,45.95 150.43,39.68 153.88,45.95 157.33,52.22 160.78,58.49 164.24,64.76 167.69,71.03 171.14,77.30 174.59,83.57 178.04,89.84 181.49,96.11 184.94,102.38 188.39,108.65 191.84,114.92 195.29,121.19 198.75,127.46 202.20,133.73 205.65,140.00 209.10,146.27 212.55,152.54 216.00,158.81 219.45,165.08 222.90,171.35 226.35,177.62 229.80,183.89 233.25,190.16 236.71,196.43 240.16,202.70 243.61,208.97 247.06,215.24 250.51,221.51 253.96,227.78 257.41,234.05 260.86,240.32 264.31,234.05 267.76,227.78 271.22,221.51 274.67,215.24 278.12,208.97 281.57,202.70 285.02,196.43 288.47,190.16 291.92,183.89 295.37,177.62 298.82,171.35 302.27,165.08 305.73,158.81 309.18,152.54 312.63,146.27 316.08,140.00 319.53,133.73 322.98,127.46 326.43,121.19 329.88,114.92 333.33,108.65 336.78,102.38 340.24,96.11 343.69,89.84 347.14,83.57 350.59,77.30 354.04,71.03 357.49,64.76 360.94,58.49 364.39,52.22 367.84,45.95 371.29,39.68 374.75,45.95 378.20,52.22 381.65,58.49 385.10,64.76 388.55,71.03 392.00,77.30 395.45,83.57 398.90,89.84 402.35,96.11 405.80,102.38 409.25,108.65 412.71,114.92 416.16,121.19 419.61,127.46 423.06,133.73 426.51,140.00 429.96,146.27 433.41,152.54 436.86,158.81 440.31,165.08 443.76,171.35 447.22,177.62 450.67,183.89 454.12,190.16 457.57,196.43 461.02,202.70 464.47,208.97 467.92,215.24 471.37,221.51 474.82,227.78 478.27,234.05 481.73,240.32 485.18,234.05 488.63,227.78 492.08,221.51 495.53,215.24 498.98,208.97 502.43,202.70 505.88,196.43 509.33,190.16 512.78,183.89 516.24,177.62 519.69,171.35 523.14,165.08 526.59,158.81 530.04,152.54 533.49,146.27 536.94,140.00 540.39,133.73 543.84,127.46 547.29,121.19 550.75,114.92 554.20,108.65 557.65,102.38 561.10,96.11 564.55,89.84 568.00,83.57 571.45,77.30 574.90,71.03 578.35,64.76 581.80,58.49 585.25,52.22 588.71,45.95 592.16,39.68 595.61,45.95 599.06,52.22 602.51,58.49 605.96,64.76 609.41,71.03 612.86,77.30 616.31,83.57 619.76,89.84 623.22,96.11 626.67,102.38 630.12,108.65 633.57,114.92 637.02,121.19 640.47,127.46 643.92,133.73 647.37,140.00 650.82,146.27 654.27,152.54 657.73,158.81 661.18,165.08 664.63,171.35 668.08,177.62 671.53,183.89 674.98,190.16 678.43,196.43 681.88,202.70 685.33,208.97 688.78,215.24 692.24,221.51 695.69,227.78 699.14,234.05 702.59,240.32 706.04,234.05 709.49,227.78 712.94,221.51 716.39,215.24 719.84,208.97 723.29,202.70 726.75,196.43 730.20,190.16 733.65,183.89 737.10,177.62 740.55,171.35 744.00,165.08 747.45,158.81 750.90,152.54 754.35,146.27 757.80,140.00 761.25,133.73 764.71,127.46 768.16,121.19 771.61,114.92 775.06,108.65 778.51,102.38 781.96,96.11 785.41,89.84 788.86,83.57 792.31,77.30 795.76,71.03 799.22,64.76 802.67,58.49 806.12,52.22 809.57,45.95 813.02,39.68 816.47,45.95 819.92,52.22 823.37,58.49 826.82,64.76 830.27,71.03 833.73,77.30 837.18,83.57 840.63,89.84 844.08,96.11 847.53,102.38 850.98,108.65 854.43,114.92 857.88,121.19 861.33,127.46 864.78,133.73 868.24,140.00 871.69,146.27 875.14,152.54 878.59,158.81 882.04,165.08 885.49,171.35 888.94,177.62 892.39,183.89 895.84,190.16 899.29,196.43 902.75,202.70 906.20,208.97 909.65,215.24 913.10,221.51 916.55,227.78 920.00,234.05"/>
  <text x="40" y="18" font-family="Segoe UI, Arial, sans-serif" font-size="16" fill="#102a43">Track 1 - Class 0: triangle</text>
  <text x="40" y="272" font-family="Consolas, monospace" font-size="12" fill="#486581">tri(64,512)</text>
</svg>
