<svg xmlns="http://www.w3.org/2000/svg" width="960" height="280" viewBox="0 0 960 280">
  <rect x="0" y="0" width="960" height="280" fill="#ffffff"/>
  <rect x="40" y="26" width="880" height="228" fill="#fbfdff" stroke="#d5dde5"/>
  <line x1="40" y1="140.0" x2="920" y2="140.0" stroke="#8aa1b5" stroke-width="1"/>
  <line x1="40" y1="76.16" x2="920" y2="76.16" stroke="#e5ebf1" stroke-width="1"/>
  <line x1="40" y1="203.84" x2="920" y2="203.84" stroke="#e5ebf1" stroke-width="1"/>
  <polyline fill="none" stroke="#005bbb" stroke-width="2.5" points="40.00,106.56 43.45,104.47 46.90,102.38 50.35,100.29 53.80,231.96 57.25,229.87 60.71,227.78 64.16,225.69 67.61,223.60 71.06,221.51 74.51,219.42 77.96,217.33 81.41,215.24 84.86,213.15 88.31,211.06 91.76,208.97 95.22,206.88 98.67,204.79 102.12,202.70 105.57,200.61 109.02,198.52 112.47,196.43 115.92,194.34 119.37,192.25 122.82,190.16 126.27,188.07 129.73,185.98 133.18,183.89 136.63,181.80 140.08,179.71 143.53,177.62 146.98,175.53 150.43,39.68 153.88,41.77 157.33,43.86 160.78,45.95 164.24,181.80 167.69,183.89 171.14,185.98 174.59,188.07 178.04,190.16 181.49,192.25 184.94,194.34 188.39,196.43 191.84,198.52 195.29,200.61 198.75,202.70 202.20,204.79 205.65,206.88 209.10,208.97 212.55,211.06 216.00,213.15 219.45,215.24 222.90,217.33 226.35,219.42 229.80,221.51 233.25,223.60 236.71,225.69 240.16,227.78 243.61,229.87 247.06,231.96 250.51,234.05 253.96,236.14 257.41,238.23 260.86,106.56 264.31,104.47 267.76,102.38 271.22,100.29 274.67,231.96 278.12,229.87 281.57,227.78 285.02,225.69 288.47,223.60 291.92,221.51 295.37,219.42 298.82,217.33 302.27,215.24 305.73,213.15 309.18,211.06 312.63,208.97 316.08,206.88 319.53,204.79 322.98,202.70 326.43,200.61 329.88,198.52 333.33,196.43 336.78,194.34 340.24,192.25 343.69,190.16 347.14,188.07 350.59,185.98 354.04,183.89 357.49,181.80 360.94,179.71 364.39,177.62 367.84,175.53 371.29,39.68 374.75,41.77 378.20,43.86 381.65,45.95 385.10,181.80 388.55,183.89 392.00,185.98 395.45,188.07 398.90,190.16 402.35,192.25 405.80,194.34 409.25,196.43 412.71,198.52 416.16,200.61 419.61,202.70 423.06,204.79 426.51,206.88 429.96,208.97 433.41,211.06 436.86,213.15 440.31,215.24 443.76,217.33 447.22,219.42 450.67,221.51 454.12,223.60 457.57,225.69 461.02,227.78 464.47,229.87 467.92,231.96 471.37,234.05 474.82,236.14 478.27,238.23 481.73,106.56 485.18,104.47 488.63,102.38 492.08,100.29 495.53,231.96 498.98,229.87 502.43,227.78 505.88,225.69 509.33,223.60 512.78,221.51 516.24,219.42 519.69,217.33 523.14,215.24 526.59,213.15 530.04,211.06 533.49,208.97 536.94,206.88 540.39,204.79 543.84,202.70 547.29,200.61 550.75,198.52 554.20,196.43 557.65,194.34 561.10,192.25 564.55,190.16 568.00,188.07 571.45,185.98 574.90,183.89 578.35,181.80 581.80,179.71 585.25,177.62 588.71,175.53 592.16,39.68 595.61,41.77 599.06,43.86 602.51,45.95 605.96,181.80 609.41,183.89 612.86,185.98 616.31,188.07 619.76,190.16 623.22,192.25 626.67,194.34 630.12,196.43 633.57,198.52 637.02,200.61 640.47,202.70 643.92,204.79 647.37,206.88 650.82,208.97 654.27,211.06 657.73,213.15 661.18,215.24 664.63,217.33 668.08,219.42 671.53,221.51 674.98,223.60 678.43,225.69 681.88,227.78 685.33,229.87 688.78,231.96 692.24,234.05 695.69,236.14 699.14,238.23 702.59,106.56 706.04,104.47 709.49,102.38 712.94,100.29 716.39,231.96 719.84,229.87 723.29,227.78 726.75,225.69 730.20,223.60 733.65,221.51 737.10,219.42 740.55,217.33 744.00,215.24 747.45,213.15 750.90,211.06 754.35,208.97 757.80,206.88 761.25,204.79 764.71,202.70 768.16,200.61 771.61,198.52 775.06,196.43 778.51,194.34 781.96,192.25 785.41,190.16 788.86,188.07 792.31,185.98 795.76,183.89 799.22,181.80 802.67,179.71 806.12,177.62 809.57,175.53 813.02,39.68 816.47,41.77 819.92,43.86 823.37,45.95 826.82,181.80 830.27,183.89 833.73,185.98 837.18,188.07 840.63,190.16 844.08,192.25 847.53,194.34 850.98,196.43 854.43,198.52 857.88,200.61 861.33,202.70 864.78,204.79 868.24,206.88 871.69,208.97 875.14,211.06 878.59,213.15 882.04,215.24 885.49,217.33 888.94,219.42 892.39,221.51 895.84,223.60 899.29,225.69 902.75,227.78 906.20,229.87 909.65,231.96 913.10,234.05 916.55,236.14 920.00,238.23"/>
  <text x="40" y="18" font-family="Segoe UI, Arial, sans-serif" font-size="16" fill="#102a43">Track 2 - Class 2: burst + triangle</text>
  <text x="40" y="272" font-family="Consolas, monospace" font-size="12" fill="#486581">tri(64,256) + burst(period=32,width=4,amp=512)</text>
</svg>
