<svg xmlns="http://www.w3.org/2000/svg" width="960" height="280" viewBox="0 0 960 280">
  <rect x="0" y="0" width="960" height="280" fill="#ffffff"/>
  <rect x="40" y="26" width="880" height="228" fill="#fbfdff" stroke="#d5dde5"/>
  <line x1="40" y1="140.0" x2="920" y2="140.0" stroke="#8aa1b5" stroke-width="1"/>
  <line x1="40" y1="76.16" x2="920" y2="76.16" stroke="#e5ebf1" stroke-width="1"/>
  <line x1="40" y1="203.84" x2="920" y2="203.84" stroke="#e5ebf1" stroke-width="1"/>
  <polyline fill="none" stroke="#005bbb" stroke-width="2.5" points="40.00,89.78 43.45,85.55 46.90,81.43 50.35,77.20 53.80,73.08 57.25,68.85 60.71,64.73 64.16,60.61 67.61,56.38 71.06,52.26 74.51,48.03 77.96,43.91 81.41,140.00 84.86,144.23 88.31,148.35 91.76,152.58 95.22,156.70 98.67,160.93 102.12,165.05 105.57,169.17 109.02,173.40 112.47,177.52 115.92,181.75 119.37,185.87 122.82,190.10 126.27,185.87 129.73,181.75 133.18,177.52 136.63,173.40 140.08,169.17 143.53,165.05 146.98,160.93 150.43,156.70 153.88,152.58 157.33,148.35 160.78,144.23 164.24,140.00 167.69,144.23 171.14,148.35 174.59,152.58 178.04,156.70 181.49,160.93 184.94,165.05 188.39,169.17 191.84,173.40 195.29,177.52 198.75,181.75 202.20,185.87 205.65,190.10 209.10,185.87 212.55,181.75 216.00,177.52 219.45,173.40 222.90,169.17 226.35,165.05 229.80,160.93 233.25,156.70 236.71,152.58 240.16,148.35 243.61,144.23 247.06,140.00 250.51,144.23 253.96,148.35 257.41,152.58 260.86,56.38 264.31,60.61 267.76,64.73 271.22,68.85 274.67,73.08 278.12,77.20 281.57,81.43 285.02,85.55 288.47,89.78 291.92,85.55 295.37,81.43 298.82,77.20 302.27,173.40 305.73,169.17 309.18,165.05 312.63,160.93 316.08,156.70 319.53,152.58 322.98,148.35 326.43,144.23 329.88,140.00 333.33,144.23 336.78,148.35 340.24,152.58 343.69,156.70 347.14,160.93 350.59,165.05 354.04,169.17 357.49,173.40 360.94,177.52 364.39,181.75 367.84,185.87 371.29,190.10 374.75,185.87 378.20,181.75 381.65,177.52 385.10,173.40 388.55,169.17 392.00,165.05 395.45,160.93 398.90,156.70 402.35,152.58 405.80,148.35 409.25,144.23 412.71,140.00 416.16,144.23 419.61,148.35 423.06,152.58 426.51,156.70 429.96,160.93 433.41,165.05 436.86,169.17 440.31,173.40 443.76,177.52 447.22,181.75 450.67,185.87 454.12,190.10 457.57,185.87 461.02,181.75 464.47,177.52 467.92,173.40 471.37,169.17 474.82,165.05 478.27,160.93 481.73,56.38 485.18,52.26 488.63,48.03 492.08,43.91 495.53,39.68 498.98,43.91 502.43,48.03 505.88,52.26 509.33,56.38 512.78,60.61 516.24,64.73 519.69,68.85 523.14,173.40 526.59,177.52 530.04,181.75 533.49,185.87 536.94,190.10 540.39,185.87 543.84,181.75 547.29,177.52 550.75,173.40 554.20,169.17 557.65,165.05 561.10,160.93 564.55,156.70 568.00,152.58 571.45,148.35 574.90,144.23 578.35,140.00 581.80,144.23 585.25,148.35 588.71,152.58 592.16,156.70 595.61,160.93 599.06,165.05 602.51,169.17 605.96,173.40 609.41,177.52 612.86,181.75 616.31,185.87 619.76,190.10 623.22,185.87 626.67,181.75 630.12,177.52 633.57,173.40 637.02,169.17 640.47,165.05 643.92,160.93 647.37,156.70 650.82,152.58 654.27,148.35 657.73,144.23 661.18,140.00 664.63,144.23 668.08,148.35 671.53,152.58 674.98,156.70 678.43,160.93 681.88,165.05 685.33,169.17 688.78,173.40 692.24,177.52 695.69,181.75 699.14,185.87 702.59,89.78 706.04,85.55 709.49,81.43 712.94,77.20 716.39,73.08 719.84,68.85 723.29,64.73 726.75,60.61 730.20,56.38 733.65,52.26 737.10,48.03 740.55,43.91 744.00,140.00 747.45,144.23 750.90,148.35 754.35,152.58 757.80,156.70 761.25,160.93 764.71,165.05 768.16,169.17 771.61,173.40 775.06,177.52 778.51,181.75 781.96,185.87 785.41,190.10 788.86,185.87 792.31,181.75 795.76,177.52 799.22,173.40 802.67,169.17 806.12,165.05 809.57,160.93 813.02,156.70 816.47,152.58 819.92,148.35 823.37,144.23 826.82,140.00 830.27,144.23 833.73,148.35 837.18,152.58 840.63,156.70 844.08,160.93 847.53,165.05 850.98,169.17 854.43,173.40 857.88,177.52 861.33,181.75 864.78,185.87 868.24,190.10 871.69,185.87 875.14,181.75 878.59,177.52 882.04,173.40 885.49,169.17 888.94,165.05 892.39,160.93 895.84,156.70 899.29,152.58 902.75,148.35 906.20,144.23 909.65,140.00 913.10,144.23 916.55,148.35 920.00,152.58"/>
  <text x="40" y="18" font-family="Segoe UI, Arial, sans-serif" font-size="16" fill="#102a43">Class 3: burst train + triangle</text>
  <text x="40" y="272" font-family="Consolas, monospace" font-size="12" fill="#486581">burst(64) + tri(24,213)</text>
</svg>
