<svg xmlns="http://www.w3.org/2000/svg" width="960" height="280" viewBox="0 0 960 280">
  <rect x="0" y="0" width="960" height="280" fill="#ffffff"/>
  <rect x="40" y="26" width="880" height="228" fill="#fbfdff" stroke="#d5dde5"/>
  <line x1="40" y1="140.0" x2="920" y2="140.0" stroke="#8aa1b5" stroke-width="1"/>
  <line x1="40" y1="76.16" x2="920" y2="76.16" stroke="#e5ebf1" stroke-width="1"/>
  <line x1="40" y1="203.84" x2="920" y2="203.84" stroke="#e5ebf1" stroke-width="1"/>
  <polyline fill="none" stroke="#005bbb" stroke-width="2.5" points="40.00,78.26 43.45,170.48 46.90,170.22 50.35,169.84 53.80,169.58 57.25,169.20 60.71,168.94 64.16,168.55 67.61,240.32 71.06,167.91 74.51,167.65 77.96,167.27 81.41,167.01 84.86,166.62 88.31,166.37 91.76,165.98 95.22,73.12 98.67,165.34 102.12,165.08 105.57,164.69 109.02,164.44 112.47,164.05 115.92,163.79 119.37,163.41 122.82,235.18 126.27,162.76 129.73,162.51 133.18,162.12 136.63,161.86 140.08,161.48 143.53,161.22 146.98,160.84 150.43,67.98 153.88,160.19 157.33,159.94 160.78,159.55 164.24,159.29 167.69,158.91 171.14,158.65 174.59,158.26 178.04,230.03 181.49,157.62 184.94,157.36 188.39,156.98 191.84,156.72 195.29,156.33 198.75,156.08 202.20,155.69 205.65,62.83 209.10,155.05 212.55,154.79 216.00,154.40 219.45,154.15 222.90,153.76 226.35,153.50 229.80,153.12 233.25,224.89 236.71,152.48 240.16,152.22 243.61,151.83 247.06,151.58 250.51,151.19 253.96,150.93 257.41,150.55 260.86,57.69 264.31,150.03 267.76,149.65 271.22,149.39 274.67,149.00 278.12,148.75 281.57,148.36 285.02,148.10 288.47,219.74 291.92,147.46 295.37,147.07 298.82,146.82 302.27,146.43 305.73,146.17 309.18,145.79 312.63,145.53 316.08,52.54 319.53,144.89 322.98,144.50 326.43,144.24 329.88,143.86 333.33,143.60 336.78,143.22 340.24,142.96 343.69,214.60 347.14,142.32 350.59,141.93 354.04,141.67 357.49,141.29 360.94,141.03 364.39,140.64 367.84,140.39 371.29,47.40 374.75,139.74 378.20,139.36 381.65,139.10 385.10,138.71 388.55,138.46 392.00,138.07 395.45,137.81 398.90,209.45 402.35,137.17 405.80,136.78 409.25,136.53 412.71,136.14 416.16,135.88 419.61,135.50 423.06,135.24 426.51,42.25 429.96,134.60 433.41,134.21 436.86,133.96 440.31,133.57 443.76,133.31 447.22,132.93 450.67,132.67 454.12,204.31 457.57,132.03 461.02,131.64 464.47,131.38 467.92,131.00 471.37,130.74 474.82,130.35 478.27,130.10 481.73,78.26 485.18,170.48 488.63,170.22 492.08,169.84 495.53,169.58 498.98,169.20 502.43,168.94 505.88,168.55 509.33,240.32 512.78,167.91 516.24,167.65 519.69,167.27 523.14,167.01 526.59,166.62 530.04,166.37 533.49,165.98 536.94,73.12 540.39,165.34 543.84,165.08 547.29,164.69 550.75,164.44 554.20,164.05 557.65,163.79 561.10,163.41 564.55,235.18 568.00,162.76 571.45,162.51 574.90,162.12 578.35,161.86 581.80,161.48 585.25,161.22 588.71,160.84 592.16,67.98 595.61,160.19 599.06,159.94 602.51,159.55 605.96,159.29 609.41,158.91 612.86,158.65 616.31,158.26 619.76,230.03 623.22,157.62 626.67,157.36 630.12,156.98 633.57,156.72 637.02,156.33 640.47,156.08 643.92,155.69 647.37,62.83 650.82,155.05 654.27,154.79 657.73,154.40 661.18,154.15 664.63,153.76 668.08,153.50 671.53,153.12 674.98,224.89 678.43,152.48 681.88,152.22 685.33,151.83 688.78,151.58 692.24,151.19 695.69,150.93 699.14,150.55 702.59,57.69 706.04,150.03 709.49,149.65 712.94,149.39 716.39,149.00 719.84,148.75 723.29,148.36 726.75,148.10 730.20,219.74 733.65,147.46 737.10,147.07 740.55,146.82 744.00,146.43 747.45,146.17 750.90,145.79 754.35,145.53 757.80,52.54 761.25,144.89 764.71,144.50 768.16,144.24 771.61,143.86 775.06,143.60 778.51,143.22 781.96,142.96 785.41,214.60 788.86,142.32 792.31,141.93 795.76,141.67 799.22,141.29 802.67,141.03 806.12,140.64 809.57,140.39 813.02,47.40 816.47,139.74 819.92,139.36 823.37,139.10 826.82,138.71 830.27,138.46 833.73,138.07 837.18,137.81 840.63,209.45 844.08,137.17 847.53,136.78 850.98,136.53 854.43,136.14 857.88,135.88 861.33,135.50 864.78,135.24 868.24,42.25 871.69,134.60 875.14,134.21 878.59,133.96 882.04,133.57 885.49,133.31 888.94,132.93 892.39,132.67 895.84,204.31 899.29,132.03 902.75,131.64 906.20,131.38 909.65,131.00 913.10,130.74 916.55,130.35 920.00,130.10"/>
  <text x="40" y="18" font-family="Segoe UI, Arial, sans-serif" font-size="16" fill="#102a43">Class 5: impulse + saw composite</text>
  <text x="40" y="272" font-family="Consolas, monospace" font-size="12" fill="#486581">impulse train(stride=16) + saw(128,160)</text>
</svg>
