<svg xmlns="http://www.w3.org/2000/svg" width="960" height="280" viewBox="0 0 960 280">
  <rect x="0" y="0" width="960" height="280" fill="#ffffff"/>
  <rect x="40" y="26" width="880" height="228" fill="#fbfdff" stroke="#d5dde5"/>
  <line x1="40" y1="140.0" x2="920" y2="140.0" stroke="#8aa1b5" stroke-width="1"/>
  <line x1="40" y1="76.16" x2="920" y2="76.16" stroke="#e5ebf1" stroke-width="1"/>
  <line x1="40" y1="203.84" x2="920" y2="203.84" stroke="#e5ebf1" stroke-width="1"/>
  <polyline fill="none" stroke="#005bbb" stroke-width="2.5" points="40.00,240.32 43.45,202.70 46.90,165.08 50.35,127.46 53.80,123.28 57.25,127.46 60.71,131.64 64.16,110.74 67.61,73.12 71.06,68.94 74.51,81.48 77.96,119.10 81.41,156.72 84.86,185.98 88.31,181.80 91.76,177.62 95.22,173.44 98.67,177.62 102.12,181.80 105.57,185.98 109.02,156.72 112.47,119.10 115.92,81.48 119.37,68.94 122.82,73.12 126.27,110.74 129.73,131.64 133.18,127.46 136.63,123.28 140.08,127.46 143.53,165.08 146.98,202.70 150.43,206.88 153.88,173.44 157.33,140.00 160.78,106.56 164.24,106.56 167.69,114.92 171.14,140.00 174.59,148.36 178.04,140.00 181.49,131.64 184.94,140.00 188.39,165.08 191.84,173.44 195.29,173.44 198.75,140.00 202.20,106.56 205.65,73.12 209.10,106.56 212.55,140.00 216.00,173.44 219.45,173.44 222.90,165.08 226.35,140.00 229.80,131.64 233.25,140.00 236.71,148.36 240.16,140.00 243.61,114.92 247.06,106.56 250.51,106.56 253.96,140.00 257.41,173.44 260.86,190.16 264.31,165.08 267.76,140.00 271.22,114.92 274.67,123.28 278.12,140.00 281.57,156.72 285.02,148.36 288.47,123.28 291.92,106.56 295.37,106.56 298.82,131.64 302.27,156.72 305.73,173.44 309.18,156.72 312.63,140.00 316.08,123.28 319.53,140.00 322.98,156.72 326.43,173.44 329.88,156.72 333.33,131.64 336.78,106.56 340.24,106.56 343.69,123.28 347.14,148.36 350.59,156.72 354.04,140.00 357.49,123.28 360.94,114.92 364.39,140.00 367.84,165.08 371.29,181.80 374.75,157.76 378.20,133.73 381.65,109.69 385.10,119.10 388.55,136.87 392.00,158.81 395.45,157.76 398.90,140.00 402.35,122.23 405.80,121.19 409.25,143.13 412.71,160.90 416.16,170.31 419.61,146.27 423.06,122.23 426.51,98.20 429.96,122.23 433.41,146.27 436.86,170.31 440.31,160.90 443.76,143.13 447.22,121.19 450.67,122.23 454.12,140.00 457.57,157.76 461.02,158.81 464.47,136.87 467.92,119.10 471.37,109.69 474.82,133.73 478.27,157.76 481.73,177.62 485.18,155.68 488.63,133.73 492.08,111.78 495.53,123.28 498.98,143.13 502.43,162.99 505.88,157.76 509.33,135.82 512.78,115.97 516.24,112.83 519.69,134.78 523.14,156.72 526.59,170.31 530.04,150.45 533.49,130.59 536.94,110.74 540.39,130.59 543.84,150.45 547.29,170.31 550.75,156.72 554.20,134.78 557.65,112.83 561.10,115.97 564.55,135.82 568.00,157.76 571.45,162.99 574.90,143.13 578.35,123.28 581.80,111.78 585.25,133.73 588.71,155.68 592.16,175.53 595.61,153.79 599.06,132.06 602.51,110.53 605.96,122.23 609.41,142.51 612.86,163.62 616.31,160.27 619.76,140.00 623.22,119.73 626.67,116.38 630.12,137.49 633.57,157.76 637.02,169.47 640.47,147.94 643.92,126.21 647.37,104.47 650.82,126.21 654.27,147.94 657.73,169.47 661.18,157.76 664.63,137.49 668.08,116.38 671.53,119.73 674.98,140.00 678.43,160.27 681.88,163.62 685.33,142.51 688.78,122.23 692.24,110.53 695.69,132.06 699.14,153.79 702.59,174.49 706.04,153.17 709.49,132.06 712.94,110.95 716.39,123.28 719.84,143.97 723.29,164.66 726.75,160.27 730.20,138.96 733.65,118.47 737.10,114.50 740.55,135.61 744.00,156.72 747.45,169.47 750.90,148.78 754.35,128.09 757.80,107.60 761.25,128.09 764.71,148.78 768.16,169.47 771.61,156.72 775.06,135.61 778.51,114.50 781.96,118.47 785.41,138.96 788.86,160.27 792.31,164.66 795.76,143.97 799.22,123.28 802.67,110.95 806.12,132.06 809.57,153.17 813.02,173.86 816.47,152.75 819.92,131.64 823.37,110.74 826.82,123.07 830.27,143.97 833.73,164.87 837.18,160.90 840.63,140.00 844.08,119.10 847.53,115.13 850.98,136.03 854.43,156.93 857.88,169.26 861.33,148.36 864.78,127.25 868.24,106.14 871.69,127.25 875.14,148.36 878.59,169.26 882.04,156.93 885.49,136.03 888.94,115.13 892.39,119.10 895.84,140.00 899.29,160.90 902.75,164.87 906.20,143.97 909.65,123.07 913.10,110.74 916.55,131.64 920.00,152.75"/>
  <text x="40" y="18" font-family="Segoe UI, Arial, sans-serif" font-size="16" fill="#102a43">Class 4: damped ringing + fast triangle</text>
  <text x="40" y="272" font-family="Consolas, monospace" font-size="12" fill="#486581">ring(decay) + tri(32,160) @ 5x index</text>
</svg>
